<svg width="625pt" height="625pt" viewBox="0 0 625 625" xmlns="http://www.w3.org/2000/svg"><path d="M326.75 31.76c7.81-2.4 16.13-2.54 24.23-2 27.4 2.12 54.59 6.96 81.17 13.9 22.79 7.83 44.2 19.52 63.79 33.51 15.36 11.36 29.77 24.21 41.76 39.14 7.55 9.28 15 18.77 20.69 29.34 2.22 3.99 3.76 8.4 3.81 13.02-4.58-1.61-8.27-4.83-11.99-7.82-12.19-10.09-23.55-21.12-35.26-31.75-26.81-22.27-56.91-40.68-89.26-53.7-6.04-2.23-12.31-3.79-18.5-5.56-28.81-7.96-57.82-15.22-86.75-22.76 1.54-2.34 3.5-4.56 6.31-5.32zM222.87 35.8c5.42-1.71 10.71-4.21 16.45-4.6-6.42 3.17-13.22 5.48-19.73 8.43-54.15 21.96-101.1 60.87-133.41 109.49-22.09 33.73-37.18 72.1-43.59 111.93-5.84 38.48-4.29 78.2 5.49 115.92 8.73 32.87 23.27 64.2 42.98 91.93 20.36 28.27 45.94 52.76 75.09 71.83 31.58 20.35 67.29 34.28 104.34 40.52 46.13 7.28 94.31 3.59 138.19-12.76 59.8-21.45 111.12-65.04 142.52-120.2 18.72-33.18 30.61-70.3 34.08-108.26.87-12.69 2-25.51.19-38.17-1.63-13.6-3.36-27.18-4.83-40.79-.6-7.05-1.65-14.12-1.29-21.21-.14-1.65 1.55-2.36 2.51-3.36 2.56 2.54 4.28 5.76 5.26 9.22 3.73 12.09 5.53 24.67 7.43 37.15 1.3 10.36 2.88 20.71 3.55 31.14.48 24.82-1.98 49.77-8.38 73.79-8.14 31.63-21.75 61.88-40.38 88.72-17.68 25.12-39.06 47.75-63.86 65.94-31.4 23.45-67.86 39.95-106.02 48.73-38.87 8.57-79.51 9.02-118.58 1.47-36.38-7.4-71.34-21.78-102.32-42.24-30.16-20.19-56.53-46-77.39-75.7-15.11-21.9-27.31-45.84-35.94-71.01-15.94-45.25-19.37-94.53-11.96-141.82 10.56-63.91 43.02-124.13 91.27-167.46 28.26-26.05 61.92-46.26 98.33-58.63z"/><path d="M222.31 41.26c10.86-5.24 22.69-8.55 34.72-9.42 1.57.21 4.59-.36 4.8 1.82-6.46 4.54-14.45 6.07-21.85 8.49-7.88 2.01-15.78 5.1-24.04 4.46 1.55-2.38 3.8-4.18 6.37-5.35zm67.24-7.98c9.01-1.69 18.31-2.26 27.39-.86 1.72.19 3.07 1.31 4.49 2.19-6.41 2.83-13.55 2.74-20.39 3.41-6.56.27-13.26 1.04-19.74-.38-.09-.33-.26-.99-.35-1.32 2.53-1.8 5.61-2.45 8.6-3.04zM208.94 84.6c63.7-31.97 141.14-34.56 207.07-7.63 14.27 5.8 28.04 12.85 40.99 21.19 1.24.77 2.53 1.47 3.9 2.02 9.49 3.37 17.75 9.31 25.95 15.02 13.87 9.82 27.07 20.92 37.49 34.44 10.03 13.23 19.78 26.75 27.74 41.35 2.87 5.7 6.35 11.77 5.26 18.42-3.79-3.89-6.62-8.56-10.28-12.54 4.56 9.89 9.3 19.73 12.83 30.06 16.11 44.99 19.04 94.57 8.52 141.17-8.16 36.51-24.65 71.11-47.75 100.53-6.35 7.85-12.74 15.79-20.23 22.59 19.5-34.98 16.08-80.17-4.93-113.7-10.1-15.83-24.26-29.96-42.16-36.52 8.85-22.79 11.04-48.12 6.33-72.1-2.31-10.76-5.98-21.73-13.54-29.99-3.31-3.7-5.99-7.97-9.79-11.22-10.97-9.92-25.88-14.2-40.35-15.37-23.29-2.3-47.34 4.43-65.96 18.64-19.65 15.22-33.91 37.51-38.79 61.95-5.36 25.37-1.71 52.29 8.96 75.81 9.07 20.2 24.8 37.63 44.91 47.19 19.99 10.28 43.31 12.9 62.18 25.49.34-4.12.16-8.4 1.62-12.32.43-1.34 1.94-1.55 3.06-2 3.91-.78 5.7-5.59 9.98-5.44 5.19.31 9.76 3.55 12.9 7.53 6.3 7.96 9.19 18.84 6.7 28.78-2.84 9.51-10.02 17.05-18.11 22.47-10.29 6.95-22.35 10.76-34.48 12.93-11.04 2.36-22.61 1.03-33.2-2.66-.13.09-.38.28-.51.37 6.95 2.59 14.37 3.13 21.65 4.17 13.8.29 27.1-3.95 40.17-7.88-10.7 6.04-23.02 8.81-35.18 9.84-9.59.38-19.17-.75-28.66-2.08-4.44-1.13-8.37-3.64-12.71-5.04-1.4.35-2.81.58-4.22.8l.36-2.8c-2.55-3.13-6.61-4.35-9.63-6.91-3.3-2.9-6.75-5.76-9.16-9.49-.43.45-.86.91-1.28 1.39 3.83 3.63 7.22 7.72 11.22 11.18 4.4 4.08 9.48 7.42 13.41 12-4.57-1.69-8.66-4.38-12.52-7.31-2.22-.74-4.26-1.92-6.26-3.1.03.49.1 1.49.14 1.99-11.38-10.51-19.39-24.04-27.15-37.3-.72-1.67-2.57-3.45-1.14-5.34 4.05 7.27 8.6 14.26 13.54 20.97 2.76 3.71 5.22 7.94 9.57 10.04-1.18-1.95-2.38-3.81-3.67-5.66.64-.6 1.28-1.2 1.91-1.8l-2.2.13c0-.32.02-.94.03-1.26l-1.32 1.86c-3.43-5.65-8.02-10.48-11.47-16.13-6.09-8.97-10.7-18.81-16.27-28.09 2.82 6.87 6.38 13.4 9.88 19.94l-1.03 1.42c-1.03-2.13-2.08-4.24-3.31-6.25 4.57 11.8 11.72 22.42 19 32.7 4.45 7.02 9.98 13.28 15.41 19.55 4.66 5.46 11.79 8.27 15.64 14.46 4.75 5.33 12.3 6.42 17.93 10.54-14.52-4.16-28.48-11.47-38.77-22.71-9.22-9.44-15.94-20.89-22.71-32.11 3.96 8.84 9.24 17.01 14.88 24.87 4.14 5.43 9.09 10.2 13.06 15.77-.74-.11-2.23-.31-2.98-.42 2.79 2.09 4.87 4.93 5.59 8.38-3.44-1.44-5.79-4.42-8.24-7.08-9.73-11.18-18.39-23.37-24.82-36.75 1.61 9.03 8.31 16.14 10.13 25.1-14.38-26.9-23.62-56.15-32.72-85.15.43 4.25 1.56 8.38 2.58 12.51 5.9 22.97 12.91 45.94 24.56 66.72-.75-.36-2.25-1.1-3-1.47 4.18 5.59 7.81 11.58 12.21 17.01 12.59 15.83 29.3 28.66 48.41 35.51 23.21 8.02 48.81 9.81 72.71 3.86-10.04 5.4-20.93 9.06-31.73 12.66-41.86 13.2-87.16 15.17-130.05 5.92-35.28-7.6-68.85-22.92-97.75-44.52-32.98-24.57-59.87-57.25-77.55-94.39-17.98-37.6-26.34-79.71-24.26-121.33C69.8 246.47 89.94 194 123.76 152.49c-1.16 9.45-1.16 18.98-.69 28.47.61 23.24 2.87 46.6 9.35 69.01 2.21 7.12 3.72 14.61 7.39 21.17 2.52 4.15 7.98 3.57 12.14 3.3 13.13-1.5 26.15-3.98 38.97-7.19 8.01-2.06 16.06-4.35 23.42-8.22-2.9 7.61-6.79 14.94-12.34 20.97-10.67 11.65-23.83 20.92-38.05 27.7 3.05-.52 5.96-1.68 9.03-2.05 2.94-.02 5.87.49 8.71 1.27-4.85 4.44-11.58 5.41-17.75 6.8 9.61-.88 18.57-4.72 28.04-6.25-8.24 3.96-17.22 6.15-26.11 8.15-4.65 1.19-9.48.97-14.23 1.32 15.98 1.86 31.39-5.59 47.35-3.95-3.91 3.8-9.27 5.39-14.07 7.71 14.56-4.51 28.47-10.89 43-15.53-6.65 7.69-14.59 14.34-23.6 19.1-4.17 2.26-8.72 3.71-12.9 5.95 4.21-.75 8.33-1.99 12.53-2.8-4.91 2.7-10.39 4.08-15.67 5.86-8.63 2.85-17.44 5.31-26.5 6.28 7.05-.13 14.06-1.24 20.88-3.02 10.46-2.72 20.93-5.41 31.39-8.13 4.7-1.19 9.33-2.81 14.21-3.06-11.87 4.79-24.5 7.39-36.4 12.06 8.72-1.28 17.36-3.19 26.17-3.73 1.64-.09 3.27.27 4.86.64 20.11-9.73 38.21-24.04 51.16-42.34 17.84-25.5 26.31-56.98 25.63-87.96-.64-29.6-11.15-58.8-29.49-82.04-12.18-16.3-29.01-29.24-48.34-35.81-4.23-.99-8.62-.95-12.91-1.57z"/><path d="M132.84 141.92c6.06-6.68 12.43-13.09 19.24-19.01.85 1.54 1.66 3.1 2.38 4.71 6.11 14.68 15.11 27.88 24.02 40.97 2.71 4.19 6.65 7.34 10.36 10.61 6.26 5.4 12.24 11.3 16.59 18.39 9.27 14.95 12.85 33.09 11.07 50.5-.29 2.39-.56 4.82-1.39 7.09-1.17 1.31-2.92 1.87-4.47 2.59-7.65 2.91-15.67 4.67-23.64 6.42-12.62 2.67-25.13 6.16-38.01 7.34-3.11.43-6.75-.4-7.77-3.76-10.62-26.5-14.86-55.12-15.58-83.54-.17-11.32-.98-22.84 1.6-33.96.63-3.47 3.37-5.85 5.6-8.35zm453.52 70.95c5.27 6.67 7.17 15.21 9.71 23.15 4.84 17.72 9.63 35.62 10.95 54 1.13 14.02 1.27 28.15-.31 42.13-.44 3.47-.33 7.16-2.13 10.27-1.25-13.47-.39-27.04-1.53-40.52-.79-8.97-1.49-17.97-2.98-26.85-4.22-20.8-9.51-41.38-13.71-62.18zm-225.13 52.32c12.29-19.25 38.16-27.75 59.76-21.23 9.45 3.02 15.28 11.65 20.49 19.52 6.89 10.81 14.93 22.15 15.06 35.49.09 13.79-2.62 27.46-6.71 40.59-22.02-7.66-45.43-11.76-68.76-10.87-3.69-.15-7.95 1.8-11.13-.81-7.75-5.81-12.34-14.84-15.07-23.93-3.92-13.04-.95-27.47 6.36-38.76zm-304.89 45.8c.56-6.29 1.01-12.78 3.8-18.55 2.15 4.17 2.27 8.93 2.6 13.5.9 14.39 2.22 28.76 4.23 43.04 2.96 16.7 6.73 33.27 9.23 50.05.3 2.1.36 4.21.41 6.33-4.99-4.04-6.89-10.41-9.05-16.19-4.14-12.41-7.31-25.15-9.7-38-1.89-13.29-2.63-26.79-1.52-40.18zm-33.1 15.89c.1-2.45.86-4.79 1.78-7.03 2.56 3.56 2.78 8.07 3.46 12.25.98 8.28 1.86 16.59 1.97 24.93.11 2.54-.44 5.04-1.25 7.44-3.12-4.18-3.88-9.43-4.82-14.41-1.39-7.64-1.58-15.45-1.14-23.18zM70.6 468.86c3.54 1.75 6.19 4.71 8.75 7.64 7.46 8.64 14.4 17.72 21.39 26.74 3.43 4.9 7.65 9.54 9.14 15.48-5.66-1.43-9.67-5.92-13.72-9.81-9.33-9.3-17.2-20.02-23.34-31.67-1.41-2.57-2.03-5.48-2.22-8.38zm86.1 102.26c7.33 1.19 14.06 4.5 20.89 7.27 11.96 4.95 23.45 10.99 35.64 15.37 10.06 3.84 20.12 7.69 29.94 12.11 3.26 1.43 6.39 3.16 9.26 5.27-5.55 2.3-11.58.67-17.21-.43-12.2-2.86-24.22-6.59-35.85-11.25-11.9-5.6-23.63-11.7-34.44-19.22-3.35-2.4-6.77-5.11-8.23-9.12z"/></svg>