<?xml version="1.0" encoding="UTF-8" ?>
<!DOCTYPE svg PUBLIC "-//W3C//DTD SVG 1.1//EN" "http://www.w3.org/Graphics/SVG/1.1/DTD/svg11.dtd">
<svg width="625pt" height="625pt" viewBox="0 0 625 625" version="1.1" xmlns="http://www.w3.org/2000/svg">
<g id="#000000ff">
<path fill="#000000" opacity="1.00" d=" M 326.75 31.76 C 334.56 29.36 342.88 29.22 350.98 29.76 C 378.38 31.88 405.57 36.72 432.15 43.66 C 454.94 51.49 476.35 63.18 495.94 77.17 C 511.30 88.53 525.71 101.38 537.70 116.31 C 545.25 125.59 552.70 135.08 558.39 145.65 C 560.61 149.64 562.15 154.05 562.20 158.67 C 557.62 157.06 553.93 153.84 550.21 150.85 C 538.02 140.76 526.66 129.73 514.95 119.10 C 488.14 96.83 458.04 78.42 425.69 65.40 C 419.65 63.17 413.38 61.61 407.19 59.84 C 378.38 51.88 349.37 44.62 320.44 37.08 C 321.98 34.74 323.94 32.52 326.75 31.76 Z" />
<path fill="#000000" opacity="1.00" d=" M 222.87 35.80 C 228.29 34.09 233.58 31.59 239.32 31.20 C 232.90 34.37 226.10 36.68 219.59 39.63 C 165.44 61.59 118.49 100.50 86.18 149.12 C 64.09 182.85 49.00 221.22 42.59 261.05 C 36.75 299.53 38.30 339.25 48.08 376.97 C 56.81 409.84 71.35 441.17 91.06 468.90 C 111.42 497.17 137.00 521.66 166.15 540.73 C 197.73 561.08 233.44 575.01 270.49 581.25 C 316.62 588.53 364.80 584.84 408.68 568.49 C 468.48 547.04 519.80 503.45 551.20 448.29 C 569.92 415.11 581.81 377.99 585.28 340.03 C 586.15 327.34 587.28 314.52 585.47 301.86 C 583.84 288.26 582.11 274.68 580.64 261.07 C 580.04 254.02 578.99 246.95 579.35 239.86 C 579.21 238.21 580.90 237.50 581.86 236.50 C 584.42 239.04 586.14 242.26 587.12 245.72 C 590.85 257.81 592.65 270.39 594.55 282.87 C 595.85 293.23 597.43 303.58 598.10 314.01 C 598.58 338.83 596.12 363.78 589.72 387.80 C 581.58 419.43 567.97 449.68 549.34 476.52 C 531.66 501.64 510.28 524.27 485.48 542.46 C 454.08 565.91 417.62 582.41 379.46 591.19 C 340.59 599.76 299.95 600.21 260.88 592.66 C 224.50 585.26 189.54 570.88 158.56 550.42 C 128.40 530.23 102.03 504.42 81.17 474.72 C 66.06 452.82 53.86 428.88 45.23 403.71 C 29.29 358.46 25.86 309.18 33.27 261.89 C 43.83 197.98 76.29 137.76 124.54 94.43 C 152.80 68.38 186.46 48.17 222.87 35.80 Z" />
<path fill="#000000" opacity="1.00" d=" M 222.31 41.26 C 233.17 36.02 245.00 32.71 257.03 31.84 C 258.60 32.05 261.62 31.48 261.83 33.66 C 255.37 38.20 247.38 39.73 239.98 42.15 C 232.10 44.16 224.20 47.25 215.94 46.61 C 217.49 44.23 219.74 42.43 222.31 41.26 Z" />
<path fill="#000000" opacity="1.00" d=" M 289.55 33.28 C 298.56 31.59 307.86 31.02 316.94 32.42 C 318.66 32.61 320.01 33.73 321.43 34.61 C 315.02 37.44 307.88 37.35 301.04 38.02 C 294.48 38.29 287.78 39.06 281.30 37.64 C 281.21 37.31 281.04 36.65 280.95 36.32 C 283.48 34.52 286.56 33.87 289.55 33.28 Z" />
<path fill="#000000" opacity="1.00" d=" M 208.94 84.60 C 272.64 52.63 350.08 50.04 416.01 76.97 C 430.28 82.77 444.05 89.82 457.00 98.16 C 458.24 98.93 459.53 99.63 460.90 100.18 C 470.39 103.55 478.65 109.49 486.85 115.20 C 500.72 125.02 513.92 136.12 524.34 149.64 C 534.37 162.87 544.12 176.39 552.08 190.99 C 554.95 196.69 558.43 202.76 557.34 209.41 C 553.55 205.52 550.72 200.85 547.06 196.87 C 551.62 206.76 556.36 216.60 559.89 226.93 C 576.00 271.92 578.93 321.50 568.41 368.10 C 560.25 404.61 543.76 439.21 520.66 468.63 C 514.31 476.48 507.92 484.42 500.43 491.22 C 519.93 456.24 516.51 411.05 495.50 377.52 C 485.40 361.69 471.24 347.56 453.34 341.00 C 462.19 318.21 464.38 292.88 459.67 268.90 C 457.36 258.14 453.69 247.17 446.13 238.91 C 442.82 235.21 440.14 230.94 436.34 227.69 C 425.37 217.77 410.46 213.49 395.99 212.32 C 372.70 210.02 348.65 216.75 330.03 230.96 C 310.38 246.18 296.12 268.47 291.24 292.91 C 285.88 318.28 289.53 345.20 300.20 368.72 C 309.27 388.92 325.00 406.35 345.11 415.91 C 365.10 426.19 388.42 428.81 407.29 441.40 C 407.63 437.28 407.45 433.00 408.91 429.08 C 409.34 427.74 410.85 427.53 411.97 427.08 C 415.88 426.30 417.67 421.49 421.95 421.64 C 427.14 421.95 431.71 425.19 434.85 429.17 C 441.15 437.13 444.04 448.01 441.55 457.95 C 438.71 467.46 431.53 475.00 423.44 480.42 C 413.15 487.37 401.09 491.18 388.96 493.35 C 377.92 495.71 366.35 494.38 355.76 490.69 C 355.63 490.78 355.38 490.97 355.25 491.06 C 362.20 493.65 369.62 494.19 376.90 495.23 C 390.70 495.52 404.00 491.28 417.07 487.35 C 406.37 493.39 394.05 496.16 381.89 497.19 C 372.30 497.57 362.72 496.44 353.23 495.11 C 348.79 493.98 344.86 491.47 340.52 490.07 C 339.12 490.42 337.71 490.65 336.30 490.87 C 336.39 490.17 336.57 488.77 336.66 488.07 C 334.11 484.94 330.05 483.72 327.03 481.16 C 323.73 478.26 320.28 475.40 317.87 471.67 C 317.44 472.12 317.01 472.58 316.59 473.06 C 320.42 476.69 323.81 480.78 327.81 484.24 C 332.21 488.32 337.29 491.66 341.22 496.24 C 336.65 494.55 332.56 491.86 328.70 488.93 C 326.48 488.19 324.44 487.01 322.44 485.83 C 322.47 486.32 322.54 487.32 322.58 487.82 C 311.20 477.31 303.19 463.78 295.43 450.52 C 294.71 448.85 292.86 447.07 294.29 445.18 C 298.34 452.45 302.89 459.44 307.83 466.15 C 310.59 469.86 313.05 474.09 317.40 476.19 C 316.22 474.24 315.02 472.38 313.73 470.53 C 314.37 469.93 315.01 469.33 315.64 468.73 L 313.44 468.86 C 313.44 468.54 313.46 467.92 313.47 467.60 C 313.03 468.22 312.59 468.84 312.15 469.46 C 308.72 463.81 304.13 458.98 300.68 453.33 C 294.59 444.36 289.98 434.52 284.41 425.24 C 287.23 432.11 290.79 438.64 294.29 445.18 L 293.26 446.60 C 292.23 444.47 291.18 442.36 289.95 440.35 C 294.52 452.15 301.67 462.77 308.95 473.05 C 313.40 480.07 318.93 486.33 324.36 492.60 C 329.02 498.06 336.15 500.87 340.00 507.06 C 344.75 512.39 352.30 513.48 357.93 517.60 C 343.41 513.44 329.45 506.13 319.16 494.89 C 309.94 485.45 303.22 474.00 296.45 462.78 C 300.41 471.62 305.69 479.79 311.33 487.65 C 315.47 493.08 320.42 497.85 324.39 503.42 C 323.65 503.31 322.16 503.11 321.41 503.00 C 324.20 505.09 326.28 507.93 327.00 511.38 C 323.56 509.94 321.21 506.96 318.76 504.30 C 309.03 493.12 300.37 480.93 293.94 467.55 C 295.55 476.58 302.25 483.69 304.07 492.65 C 289.69 465.75 280.45 436.50 271.35 407.50 C 271.78 411.75 272.91 415.88 273.93 420.01 C 279.83 442.98 286.84 465.95 298.49 486.73 C 297.74 486.37 296.24 485.63 295.49 485.26 C 299.67 490.85 303.30 496.84 307.70 502.27 C 320.29 518.10 337.00 530.93 356.11 537.78 C 379.32 545.80 404.92 547.59 428.82 541.64 C 418.78 547.04 407.89 550.70 397.09 554.30 C 355.23 567.50 309.93 569.47 267.04 560.22 C 231.76 552.62 198.19 537.30 169.29 515.70 C 136.31 491.13 109.42 458.45 91.74 421.31 C 73.76 383.71 65.40 341.60 67.48 299.98 C 69.80 246.47 89.94 194.00 123.76 152.49 C 122.60 161.94 122.60 171.47 123.07 180.96 C 123.68 204.20 125.94 227.56 132.42 249.97 C 134.63 257.09 136.14 264.58 139.81 271.14 C 142.33 275.29 147.79 274.71 151.95 274.44 C 165.08 272.94 178.10 270.46 190.92 267.25 C 198.93 265.19 206.98 262.90 214.34 259.03 C 211.44 266.64 207.55 273.97 202.00 280.00 C 191.33 291.65 178.17 300.92 163.95 307.70 C 167.00 307.18 169.91 306.02 172.98 305.65 C 175.92 305.63 178.85 306.14 181.69 306.92 C 176.84 311.36 170.11 312.33 163.94 313.72 C 173.55 312.84 182.51 309.00 191.98 307.47 C 183.74 311.43 174.76 313.62 165.87 315.62 C 161.22 316.81 156.39 316.59 151.64 316.94 C 167.62 318.80 183.03 311.35 198.99 312.99 C 195.08 316.79 189.72 318.38 184.92 320.70 C 199.48 316.19 213.39 309.81 227.92 305.17 C 221.27 312.86 213.33 319.51 204.32 324.27 C 200.15 326.53 195.60 327.98 191.42 330.22 C 195.63 329.47 199.75 328.23 203.95 327.42 C 199.04 330.12 193.56 331.50 188.28 333.28 C 179.65 336.13 170.84 338.59 161.78 339.56 C 168.83 339.43 175.84 338.32 182.66 336.54 C 193.12 333.82 203.59 331.13 214.05 328.41 C 218.75 327.22 223.38 325.60 228.26 325.35 C 216.39 330.14 203.76 332.74 191.86 337.41 C 200.58 336.13 209.22 334.22 218.03 333.68 C 219.67 333.59 221.30 333.95 222.89 334.32 C 243.00 324.59 261.10 310.28 274.05 291.98 C 291.89 266.48 300.36 235.00 299.68 204.02 C 299.04 174.42 288.53 145.22 270.19 121.98 C 258.01 105.68 241.18 92.74 221.85 86.17 C 217.62 85.18 213.23 85.22 208.94 84.60 Z" />
<path fill="#000000" opacity="1.00" d=" M 132.84 141.92 C 138.90 135.24 145.27 128.83 152.08 122.91 C 152.93 124.45 153.74 126.01 154.46 127.62 C 160.57 142.30 169.57 155.50 178.48 168.59 C 181.19 172.78 185.13 175.93 188.84 179.20 C 195.10 184.60 201.08 190.50 205.43 197.59 C 214.70 212.54 218.28 230.68 216.50 248.09 C 216.21 250.48 215.94 252.91 215.11 255.18 C 213.94 256.49 212.19 257.05 210.64 257.77 C 202.99 260.68 194.97 262.44 187.00 264.19 C 174.38 266.86 161.87 270.35 148.99 271.53 C 145.88 271.96 142.24 271.13 141.22 267.77 C 130.60 241.27 126.36 212.65 125.64 184.23 C 125.47 172.91 124.66 161.39 127.24 150.27 C 127.87 146.80 130.61 144.42 132.84 141.92 Z" />
<path fill="#000000" opacity="1.00" d=" M 586.36 212.87 C 591.63 219.54 593.53 228.08 596.07 236.02 C 600.91 253.74 605.70 271.64 607.02 290.02 C 608.15 304.04 608.29 318.17 606.71 332.15 C 606.27 335.62 606.38 339.31 604.58 342.42 C 603.33 328.95 604.19 315.38 603.05 301.90 C 602.26 292.93 601.56 283.93 600.07 275.05 C 595.85 254.25 590.56 233.67 586.36 212.87 Z" />
<path fill="#000000" opacity="1.00" d=" M 361.23 265.19 C 373.52 245.94 399.39 237.44 420.99 243.96 C 430.44 246.98 436.27 255.61 441.48 263.48 C 448.37 274.29 456.41 285.63 456.54 298.97 C 456.63 312.76 453.92 326.43 449.83 339.56 C 427.81 331.90 404.40 327.80 381.07 328.69 C 377.38 328.54 373.12 330.49 369.94 327.88 C 362.19 322.07 357.60 313.04 354.87 303.95 C 350.95 290.91 353.92 276.48 361.23 265.19 Z" />
<path fill="#000000" opacity="1.00" d=" M 56.34 310.99 C 56.90 304.70 57.35 298.21 60.14 292.44 C 62.29 296.61 62.41 301.37 62.74 305.94 C 63.64 320.33 64.96 334.70 66.97 348.98 C 69.93 365.68 73.70 382.25 76.20 399.03 C 76.50 401.13 76.56 403.24 76.61 405.36 C 71.62 401.32 69.72 394.95 67.56 389.17 C 63.42 376.76 60.25 364.02 57.86 351.17 C 55.97 337.88 55.23 324.38 56.34 310.99 Z" />
<path fill="#000000" opacity="1.00" d=" M 23.24 326.88 C 23.34 324.43 24.10 322.09 25.02 319.85 C 27.58 323.41 27.80 327.92 28.48 332.10 C 29.46 340.38 30.34 348.69 30.45 357.03 C 30.56 359.57 30.01 362.07 29.20 364.47 C 26.08 360.29 25.32 355.04 24.38 350.06 C 22.99 342.42 22.80 334.61 23.24 326.88 Z" />
<path fill="#000000" opacity="1.00" d=" M 70.60 468.86 C 74.14 470.61 76.79 473.57 79.35 476.50 C 86.81 485.14 93.75 494.22 100.74 503.24 C 104.17 508.14 108.39 512.78 109.88 518.72 C 104.22 517.29 100.21 512.80 96.16 508.91 C 86.83 499.61 78.96 488.89 72.82 477.24 C 71.41 474.67 70.79 471.76 70.60 468.86 Z" />
<path fill="#000000" opacity="1.00" d=" M 156.70 571.12 C 164.03 572.31 170.76 575.62 177.59 578.39 C 189.55 583.34 201.04 589.38 213.23 593.76 C 223.29 597.60 233.35 601.45 243.17 605.87 C 246.43 607.30 249.56 609.03 252.43 611.14 C 246.88 613.44 240.85 611.81 235.22 610.71 C 223.02 607.85 211.00 604.12 199.37 599.46 C 187.47 593.86 175.74 587.76 164.93 580.24 C 161.58 577.84 158.16 575.13 156.70 571.12 Z" />
</g>
</svg>
